# xmcd
#
# Track frame offsets:
# 150
# 5934
# 12736
# 25067
# 41898
# 59353
# 77213
# 82513
# 95380
# 111810
# 128091
# 131214
# 149153
# 170036
# 185837
# 188872
#
# Disc length: 2768 seconds
#
#
# Revision: 0
# Processed by: cddbd v1.5.2PL0 Copyright (c) Steve Scherf et al.
# Submitted via: FreeRIP 2.96 
#
DISCID=e90ace10
DTITLE=Verbal Kent - What Box
DYEAR=2004
DGENRE=Hip-Hop
TTITLE0=Intro
TTITLE1=First
TTITLE2=The Peoples Rapper
TTITLE3=Tomatoes and Glocks
TTITLE4=Alley Rap
TTITLE5=The Remix
TTITLE6=Spit To Kill 1
TTITLE7=Big Buildings
TTITLE8=Power
TTITLE9=The City
TTITLE10=Spit To Kill 2
TTITLE11=Combat
TTITLE12=Alien Rock
TTITLE13=The Zone
TTITLE14=Spit To Kill 3
TTITLE15=Get A Job
EXTD=
EXTT0=
EXTT1=
EXTT2=
EXTT3=
EXTT4=
EXTT5=
EXTT6=
EXTT7=
EXTT8=
EXTT9=
EXTT10=
EXTT11=
EXTT12=
EXTT13=
EXTT14=
EXTT15=
PLAYORDER=
